<svg width="16" height="16" viewBox="0 0 16 16" fill="none" xmlns="http://www.w3.org/2000/svg">
<g clip-path="url(#clip0_103_109)">
<path d="M0 0V1C2.993 1 5.765 1.895 8.104 3.404C8.044 3.592 8.004 3.788 8.004 3.994C8.004 5.093 8.905 5.994 10.004 5.994C10.341 5.994 10.654 5.901 10.934 5.752C13.448 8.434 15 12.029 15 16H16C16 11.779 14.347 7.948 11.672 5.088C11.8878 4.76391 12.0033 4.38338 12.004 3.994C12.004 2.895 11.103 1.994 10.004 1.994C9.49003 1.99552 8.99659 2.19584 8.627 2.553C6.05776 0.887737 3.06171 0.00111229 0 0V0ZM10.004 2.994C10.562 2.994 11.004 3.436 11.004 3.994C11.004 4.552 10.562 4.994 10.004 4.994C9.446 4.994 9.004 4.552 9.004 3.994C9.004 3.436 9.446 2.994 10.004 2.994V2.994ZM0.018 5.982V6.982C4.994 6.982 9.018 11.006 9.018 15.982H10.018C10.018 10.465 5.535 5.982 0.018 5.982V5.982Z" fill="#F64E60"/>
</g>
<defs>
<clipPath id="clip0_103_109">
<rect width="16" height="16" fill="white"/>
</clipPath>
</defs>
</svg>
